<?xml version="1.0" encoding="utf-8"?>
<!-- Generator: Adobe Illustrator 25.4.1, SVG Export Plug-In . SVG Version: 6.00 Build 0)  -->
<svg version="1.1" id="Icons" xmlns="http://www.w3.org/2000/svg" xmlns:xlink="http://www.w3.org/1999/xlink" x="0px" y="0px"
	 viewBox="0 0 48 48" style="enable-background:new 0 0 48 48;" xml:space="preserve">
<style type="text/css">
	.st0{opacity:0.15;fill:#45413C;enable-background:new    ;}
	.st1{fill:#FFFFFF;}
	.st2{fill:#F0F0F0;}
	.st3{fill:none;stroke:#45413C;stroke-linecap:round;stroke-linejoin:round;}
	.st4{fill:#BF8256;}
	.st5{fill:#915E3A;}
	.st6{fill:#DEA47A;}
</style>
<g id="_Group_">
	<ellipse id="_Ellipse_" class="st0" cx="24.7" cy="45" rx="15.2" ry="2"/>
	<path id="_Compound_Path_" class="st1" d="M39.6,44.1c0.7-0.7,1.1-1.8,0.9-2.8c1,0.1,2.1-0.2,2.8-0.9c1.2-1.4,1.1-3.4-0.3-4.7
		c-1.3-1.1-3.2-1.1-4.4,0c-0.2,0.2-8.9-7.9-8.9-7.9L27,30.5c0,0,8.1,8.7,7.9,8.9c-1.4,1.2-1.5,3.3-0.3,4.7s3.3,1.5,4.7,0.3
		C39.4,44.2,39.5,44.1,39.6,44.1L39.6,44.1z"/>
	<g id="_Group_2">
		<path id="_Path_" class="st2" d="M41.3,38.3c0.3,2-1.1,3.9-3.2,4.2c-1.1,0.2-2.3-0.2-3.1-1c-0.3-0.3-0.5-0.6-0.7-1
			c-0.7,1.7,0.1,3.6,1.8,4.3s3.6-0.1,4.3-1.8c0.2-0.6,0.3-1.2,0.2-1.8c1,0.1,2.1-0.2,2.8-0.9c0.8-0.8,1.1-1.8,0.9-2.9
			C43.5,38.2,42.4,38.5,41.3,38.3z"/>
	</g>
	<path id="_Compound_Path_2" class="st3" d="M39.6,44.1c0.7-0.7,1.1-1.8,0.9-2.8c1,0.1,2.1-0.2,2.8-0.9c1.2-1.4,1.1-3.4-0.3-4.7
		c-1.3-1.1-3.2-1.1-4.4,0c-0.2,0.2-8.9-7.9-8.9-7.9L27,30.5c0,0,8.1,8.7,7.9,8.9c-1.4,1.2-1.5,3.3-0.3,4.7s3.3,1.5,4.7,0.3
		C39.4,44.2,39.5,44.1,39.6,44.1L39.6,44.1z"/>
	<path id="_Path_2" class="st4" d="M26.7,9.7l11.4,11.4c1.3,1.2,2,2.9,2.1,4.6c0.1,2.4-0.9,5.9-5.1,10.1c-7.1,7.1-12,4.8-14.1,2.7
		c-2.8-2.8-2.7-3.9-4.6-5.8S13.6,32,9,27.4L26.7,9.7z"/>
	<path id="_Path_3" class="st5" d="M23.2,36.1c-3.2-3.3-3.2-4.4-5.4-6.6C16,27.6,15,28.2,11.4,25L9,27.4c4.6,4.6,5.5,3.4,7.4,5.3
		s1.8,2.9,4.6,5.8c1.8,1.8,5.6,3.7,11-0.1C28.9,39.3,25.5,38.4,23.2,36.1z"/>
	<path id="_Path_4" class="st3" d="M26.7,9.7l11.4,11.4c1.3,1.2,2,2.9,2.1,4.6c0.1,2.4-0.9,5.9-5.1,10.1c-7.1,7.1-12,4.8-14.1,2.7
		c-2.8-2.8-2.7-3.9-4.6-5.8S13.6,32,9,27.4L26.7,9.7z"/>
	
		<ellipse id="_Path_5" transform="matrix(0.7071 -0.7071 0.7071 0.7071 -7.8984 18.0556)" class="st6" cx="17.8" cy="18.6" rx="12.5" ry="8.1"/>
	<path id="_Path_6" class="st4" d="M23.6,21.4c-4.9,4.9-11.4,6.3-14.6,3.1c-0.8-0.9-1.4-1.9-1.6-3.1c-0.5,2.1,0.1,4.4,1.6,6
		c3.2,3.2,9.7,1.8,14.6-3.1c3.6-3.6,5.3-8.1,4.7-11.5C27.6,16.1,26,19.1,23.6,21.4z"/>
	
		<ellipse id="_Path_7" transform="matrix(0.7071 -0.7071 0.7071 0.7071 -7.8984 18.0556)" class="st3" cx="17.8" cy="18.6" rx="12.5" ry="8.1"/>
	<path id="_Compound_Path_3" class="st1" d="M9.1,4.8c-1.2,0.7-1.9,2-1.7,3.4C6.1,8,4.8,8.6,4.1,9.9c-0.6,1-0.6,2.2,0,3.2
		C5,14.6,7,15.2,8.6,14.3c0.3-0.1,0.5-0.3,0.7-0.5c0.1-0.1,3.9,3.2,5.8,5c0.7,0.6,1.7,0.6,2.3-0.1l0.6-0.6c0.6-0.6,0.7-1.6,0.1-2.3
		c-1.8-2-5.1-5.7-5-5.8c1.3-1.3,1.3-3.4,0-4.7c-0.2-0.2-0.5-0.4-0.7-0.5C11.3,4.3,10.1,4.3,9.1,4.8z"/>
	<g id="_Group_3">
		<path id="_Path_8" class="st2" d="M14,7.7c-0.1,0.1-0.1,0.2-0.2,0.2c-0.1,0.1,0,0.1,0.1,0.2C14,8,14,7.9,14,7.7z"/>
		<path id="_Path_9" class="st2" d="M18,18.1c-0.4,0-0.9-0.2-1.2-0.5c-2.3-2.1-6.6-6-6.7-5.9c-1.5,1.5-4.3,1-5.7-1.2
			c-0.1-0.2-0.2-0.4-0.3-0.6c-0.6,1-0.6,2.2,0,3.2C5,14.6,7,15.2,8.6,14.3c0.3-0.1,0.5-0.3,0.7-0.5c0.1-0.1,3.9,3.2,5.8,5
			c0.7,0.6,1.7,0.6,2.3-0.1L18,18.1z"/>
	</g>
	<path id="_Compound_Path_4" class="st3" d="M9.1,4.8c-1.2,0.7-1.9,2-1.7,3.4C6.1,8,4.8,8.6,4.1,9.9c-0.6,1-0.6,2.2,0,3.2
		C5,14.6,7,15.2,8.6,14.3c0.3-0.1,0.5-0.3,0.7-0.5c0.1-0.1,3.9,3.2,5.8,5c0.7,0.6,1.7,0.6,2.3-0.1l0.6-0.6c0.6-0.6,0.7-1.6,0.1-2.3
		c-1.8-2-5.1-5.7-5-5.8c1.3-1.3,1.3-3.4,0-4.7c-0.2-0.2-0.5-0.4-0.7-0.5C11.3,4.3,10.1,4.3,9.1,4.8z"/>
</g>
</svg>
